<?xml version="1.0" standalone="no"?>
<!DOCTYPE svg PUBLIC "-//W3C//DTD SVG 20010904//EN"
 "http://www.w3.org/TR/2001/REC-SVG-20010904/DTD/svg10.dtd">
<svg version="1.0" xmlns="http://www.w3.org/2000/svg"
 width="614.000000pt" height="835.000000pt" viewBox="0 0 614.000000 835.000000"
 preserveAspectRatio="xMidYMid meet">

<g transform="translate(0.000000,835.000000) scale(0.100000,-0.100000)"
fill="#000000" stroke="none">
<path d="M2967 8010 c-16 -5 -34 -13 -40 -18 -7 -5 -25 -12 -42 -16 -65 -15
-325 -143 -393 -193 -80 -59 -332 -326 -340 -360 -2 -7 -7 -13 -11 -13 -4 0
-16 -15 -26 -34 -18 -33 -51 -56 -79 -56 -23 0 -76 -113 -82 -179 -7 -62 7
-118 33 -134 9 -5 13 -31 13 -77 0 -39 4 -70 9 -70 5 0 11 -35 13 -77 5 -86
18 -118 92 -223 25 -36 58 -90 72 -120 66 -136 77 -143 264 -162 l115 -12 -2
-113 c-6 -242 -62 -577 -110 -649 -13 -21 -14 -27 -1 -46 10 -16 12 -33 6 -58
-4 -19 -10 -55 -13 -80 -11 -88 -27 -156 -48 -198 -16 -33 -19 -47 -10 -60 43
-69 111 38 133 207 16 126 31 206 51 269 11 34 18 66 15 71 -3 4 4 38 15 76
12 37 19 80 16 94 -3 15 1 72 8 126 8 55 15 159 15 231 l0 132 56 7 c32 4 83
20 114 36 44 22 72 29 116 29 33 1 77 8 99 16 22 9 50 18 62 21 37 9 100 77
129 140 15 32 27 59 26 60 -1 2 11 29 28 60 49 97 66 146 69 200 3 69 -10 93
-54 93 -38 0 -54 -25 -36 -59 14 -24 14 -66 2 -89 -6 -9 -21 -42 -34 -72 -66
-148 -91 -197 -111 -218 -36 -40 -96 -63 -186 -72 -90 -8 -144 -23 -172 -48
-33 -28 -296 -25 -413 4 -23 6 -67 71 -85 126 -6 21 -17 41 -23 45 -17 11
-104 142 -116 176 -6 16 -11 45 -11 66 0 22 -6 44 -15 51 -11 9 -15 34 -15 94
0 51 4 76 9 67 6 -10 32 -15 84 -16 42 -1 81 -6 89 -12 7 -6 30 -16 50 -22 76
-25 128 42 128 166 0 104 -74 195 -175 214 -33 7 -61 13 -63 15 -3 2 29 41 63
78 6 6 25 31 42 56 28 41 205 220 217 220 3 0 15 8 26 18 39 33 179 107 295
155 124 52 179 67 247 67 63 0 68 -2 80 -27 10 -21 21 -28 43 -29 58 -1 106
-15 153 -46 63 -42 185 -168 212 -221 12 -23 25 -44 29 -47 7 -5 54 -99 104
-210 14 -30 30 -74 36 -97 6 -23 16 -45 21 -48 6 -3 10 -15 10 -25 0 -10 14
-63 31 -116 28 -86 30 -102 20 -130 -11 -29 -9 -37 8 -61 11 -15 25 -53 30
-83 5 -30 19 -109 31 -175 11 -66 25 -151 30 -190 5 -38 13 -84 18 -100 5 -17
17 -95 26 -175 9 -80 21 -167 27 -195 6 -27 14 -81 18 -120 5 -38 14 -101 20
-140 6 -38 19 -113 27 -165 27 -165 33 -194 79 -380 19 -75 35 -181 39 -260 5
-78 42 -210 64 -226 10 -7 40 -57 67 -111 37 -75 48 -107 46 -137 -3 -50 -6
-54 -30 -32 -24 22 -57 14 -67 -16 -5 -17 1 -28 24 -49 38 -34 62 -79 62 -116
0 -49 -31 -305 -45 -373 -8 -36 -17 -90 -20 -120 -4 -30 -18 -97 -31 -149 -13
-51 -24 -103 -24 -115 0 -12 -6 -46 -14 -76 -7 -30 -21 -91 -31 -135 -19 -85
-77 -315 -95 -377 -11 -38 -59 -103 -60 -81 0 7 11 24 25 39 41 44 32 114 -15
114 -15 0 -53 11 -83 25 -59 27 -239 80 -372 110 -65 14 -110 16 -225 12 -80
-2 -155 -8 -166 -12 l-22 -7 5 279 c5 330 14 420 54 502 15 34 25 61 21 61 -4
0 -2 4 4 8 15 10 142 199 149 223 4 10 11 19 16 19 5 0 9 6 9 14 0 8 6 21 13
28 17 18 77 117 77 128 0 5 4 10 9 12 5 2 28 41 51 88 23 47 46 87 49 90 4 3
18 21 31 40 13 19 30 41 38 49 44 45 49 84 12 96 -29 9 -49 -5 -90 -66 -22
-32 -44 -60 -50 -64 -5 -3 -29 -45 -52 -93 -24 -48 -47 -91 -51 -97 -21 -27
-119 -185 -137 -221 -12 -23 -29 -50 -38 -60 -9 -10 -23 -31 -31 -46 -8 -15
-22 -37 -33 -47 -10 -11 -18 -25 -18 -31 0 -5 -4 -10 -10 -10 -5 0 -13 -12
-16 -26 -4 -14 -17 -46 -30 -70 -13 -25 -26 -64 -30 -87 -3 -23 -9 -60 -14
-82 -5 -22 -12 -200 -15 -396 -5 -320 -4 -358 10 -373 9 -9 25 -16 35 -16 25
0 53 29 47 50 -6 25 71 40 208 40 117 0 150 -6 354 -62 142 -39 203 -62 215
-80 14 -23 -62 -197 -87 -198 -4 0 -20 -11 -35 -25 -15 -14 -42 -30 -61 -36
-47 -16 -177 -3 -210 20 -14 10 -60 35 -101 56 -41 20 -82 43 -90 50 -19 17
-123 77 -220 127 -68 36 -120 78 -120 99 0 12 -35 20 -54 13 -10 -4 -16 -17
-16 -35 0 -43 53 -95 144 -141 45 -22 83 -44 86 -47 3 -4 26 -17 51 -29 25
-12 54 -30 65 -40 10 -10 55 -36 99 -57 44 -22 82 -43 85 -46 3 -4 24 -16 48
-28 30 -15 69 -23 135 -28 83 -5 97 -3 136 16 70 36 124 79 154 124 23 33 33
41 53 39 45 -6 90 36 129 120 19 43 35 85 35 94 0 10 6 40 14 68 44 156 106
427 106 463 0 16 6 49 14 74 22 71 35 134 42 196 4 32 13 83 20 113 8 30 14
75 15 100 l1 45 19 -70 c10 -38 19 -87 19 -109 0 -21 6 -80 14 -130 8 -50 22
-149 31 -221 9 -71 22 -166 30 -210 8 -44 17 -105 20 -135 3 -30 10 -80 15
-110 41 -245 42 -256 37 -440 -3 -126 -9 -196 -18 -220 -13 -32 -46 -87 -59
-100 -19 -18 -160 -297 -160 -316 0 -23 -87 -105 -134 -127 -21 -10 -40 -16
-42 -14 -2 2 0 17 5 33 33 105 41 150 41 230 0 88 -8 114 -36 114 -31 0 -44
-31 -44 -108 0 -83 -18 -157 -75 -322 -20 -58 -54 -159 -76 -224 -22 -66 -43
-124 -47 -130 -4 -6 -16 -36 -26 -66 -32 -96 -356 -773 -376 -785 -6 -4 -10 1
-10 10 0 59 -129 204 -215 242 -143 61 -205 84 -259 94 -32 6 -69 14 -81 19
-12 4 -46 11 -76 15 -30 4 -72 11 -94 16 -22 4 -64 9 -92 9 -29 0 -53 3 -53 8
0 4 11 19 25 34 14 15 25 31 25 36 0 5 9 20 20 33 33 40 34 42 59 94 14 28 27
52 31 55 6 5 37 61 151 281 34 64 45 78 70 83 24 4 29 10 29 34 0 15 -4 32
-10 38 -12 12 6 63 58 169 21 44 47 100 57 125 9 25 24 59 32 77 9 17 15 34
13 38 -1 3 12 30 28 59 35 61 55 127 46 150 -4 10 -18 16 -35 16 -21 0 -32 -7
-44 -30 -8 -16 -15 -36 -15 -44 0 -8 -11 -36 -24 -63 -13 -26 -33 -73 -46
-103 -12 -30 -28 -66 -35 -80 -7 -14 -13 -29 -12 -33 0 -5 -18 -48 -40 -95
-23 -48 -53 -113 -67 -144 l-26 -57 -57 -6 c-74 -8 -233 -35 -298 -50 -56 -14
-76 -35 -59 -62 14 -23 60 -22 174 1 47 10 111 20 143 23 l59 6 -26 -49 c-15
-27 -48 -89 -75 -139 -28 -49 -62 -112 -77 -140 -32 -59 -116 -186 -138 -208
-9 -9 -16 -18 -16 -22 0 -5 -39 -64 -50 -75 -9 -9 -40 -71 -40 -80 0 -14 30
-40 46 -40 8 0 27 20 42 45 27 45 27 45 84 45 31 0 69 -5 83 -10 15 -6 59 -14
99 -19 86 -11 249 -47 291 -66 16 -7 57 -23 90 -36 71 -27 100 -46 149 -95 49
-49 70 -81 86 -132 21 -68 6 -76 -139 -81 -66 -1 -139 2 -162 7 -139 33 -178
46 -266 92 -119 61 -164 86 -179 98 -6 6 -25 17 -43 27 -18 9 -55 38 -84 66
-28 27 -54 49 -58 49 -13 0 -39 -31 -39 -45 0 -26 56 -79 145 -137 49 -32 95
-61 100 -65 36 -27 251 -124 296 -134 30 -6 59 -15 65 -20 18 -14 293 -23 335
-11 29 8 40 7 52 -5 26 -26 70 1 66 40 -1 5 10 21 23 35 20 23 97 177 329 657
62 127 122 274 134 329 2 10 8 23 13 30 6 6 13 27 17 46 4 19 11 40 15 45 4 6
11 26 15 45 4 19 11 41 16 50 4 8 15 36 25 62 14 42 18 45 31 32 40 -39 209
76 248 168 35 84 78 163 101 187 13 12 26 30 29 40 3 9 31 36 61 61 31 25 68
56 84 70 15 14 44 39 65 55 58 48 278 266 310 309 17 21 40 50 52 65 13 14 23
29 23 33 0 4 7 14 15 22 25 25 76 114 219 383 23 45 53 108 66 140 12 32 28
72 35 88 7 17 20 50 28 75 17 50 44 125 57 155 12 27 60 163 70 200 5 17 20
71 34 120 14 50 32 110 40 135 8 25 22 81 31 125 9 44 23 105 31 137 23 93 29
202 12 218 -16 15 -6 77 27 178 28 83 6 193 -38 192 -17 -1 -49 -29 -77 -70
-13 -19 -35 -46 -47 -60 -13 -14 -40 -49 -61 -78 -20 -30 -59 -79 -87 -111
-27 -32 -57 -66 -65 -77 -8 -11 -26 -33 -40 -50 -14 -17 -36 -45 -50 -64 -14
-18 -30 -38 -35 -44 -6 -6 -28 -36 -50 -66 -22 -30 -42 -57 -45 -60 -8 -7 -51
-61 -80 -100 -14 -18 -32 -40 -40 -48 -8 -9 -28 -31 -43 -51 -15 -19 -56 -65
-90 -101 -69 -74 -97 -108 -97 -115 0 -8 -284 -285 -292 -285 -4 0 -9 21 -13
48 -3 26 -12 93 -20 149 -8 56 -15 116 -15 133 0 18 -6 62 -14 99 -8 36 -23
111 -32 166 -10 55 -21 104 -26 110 -4 5 -8 38 -8 73 0 54 2 63 14 53 7 -6 16
-24 19 -40 6 -31 33 -46 60 -35 29 11 30 42 3 87 -73 123 -88 160 -82 198 7
42 -14 74 -44 66 -14 -4 -29 19 -71 106 -31 64 -56 132 -60 161 -4 28 -12 94
-19 146 -7 52 -16 102 -20 111 -5 9 -12 38 -15 65 -4 27 -11 54 -15 59 -4 6
-10 28 -14 50 -4 22 -13 69 -21 105 -7 36 -21 112 -30 170 -8 58 -21 132 -27
165 -6 33 -14 92 -18 130 -5 39 -13 88 -18 110 -6 22 -13 87 -15 145 -3 58
-12 124 -20 147 -9 22 -13 43 -11 46 2 2 -3 33 -12 67 -9 35 -17 82 -18 104
-2 23 -8 66 -15 96 -6 30 -14 78 -17 105 -3 28 -10 64 -15 81 -5 18 -11 60
-13 95 -3 57 -56 269 -77 310 -4 9 -10 27 -13 40 -8 37 -33 107 -63 174 -37
83 -125 259 -133 265 -3 3 -18 25 -32 50 -60 101 -250 253 -333 266 -31 4 -46
12 -53 28 -9 19 -21 24 -79 29 -87 9 -151 7 -186 -3z m-676 -773 c15 -12 28
-25 28 -29 1 -8 -65 9 -97 25 -47 23 -79 -34 -69 -121 4 -40 3 -42 -27 -50
-17 -5 -32 -5 -34 0 -2 4 -9 8 -16 8 -7 0 -20 8 -30 19 -24 27 -11 96 26 134
15 17 28 27 28 24 0 -3 15 1 33 9 43 19 121 10 158 -19z m58 -185 c-12 -36
-17 -38 -45 -18 -18 14 -18 15 8 21 15 4 29 14 33 22 11 30 15 6 4 -25z m3363
-2379 c-6 -10 -12 -31 -15 -48 -3 -16 -10 -52 -17 -80 -6 -27 -13 -58 -16 -69
-2 -10 -10 -43 -19 -72 -8 -29 -14 -57 -13 -61 1 -4 -1 -32 -5 -62 -7 -43 -5
-57 8 -72 13 -13 15 -28 10 -58 -4 -22 -7 -43 -6 -46 0 -2 -7 -24 -15 -47 -9
-24 -17 -52 -20 -63 -2 -11 -15 -58 -29 -105 -14 -47 -28 -96 -31 -109 -3 -13
-10 -33 -15 -43 -6 -11 -12 -27 -14 -36 -2 -9 -18 -55 -35 -102 -26 -70 -47
-131 -55 -160 -1 -3 -6 -16 -12 -30 -6 -14 -23 -56 -38 -95 -34 -89 -97 -225
-110 -239 -6 -6 -41 -69 -78 -139 -37 -71 -76 -138 -87 -150 -11 -11 -20 -24
-20 -28 0 -4 -6 -14 -12 -21 -7 -7 -33 -39 -57 -71 -47 -62 -357 -367 -373
-367 -5 0 -3 10 4 23 21 36 24 419 4 521 -8 45 -22 135 -31 201 -9 66 -23 158
-30 205 -23 142 -25 169 -9 163 7 -3 28 4 46 15 32 20 273 261 312 312 11 14
47 57 81 95 34 39 70 81 81 94 10 13 26 31 35 40 8 9 33 39 54 66 21 28 44 55
50 60 6 6 28 35 50 65 22 30 42 57 45 60 3 3 27 34 55 70 27 36 57 74 67 85
42 48 144 174 158 194 8 13 22 31 30 41 8 10 28 35 44 54 30 37 45 42 28 9z"/>
<path d="M2967 7362 c-65 -23 -108 -60 -138 -118 -30 -57 -39 -157 -16 -171 8
-4 17 -23 20 -42 9 -45 49 -81 90 -81 39 0 120 37 166 75 31 27 72 38 172 48
42 5 77 34 84 69 5 25 -2 50 -25 101 -16 37 -34 67 -39 67 -5 0 -16 6 -23 14
-8 7 -33 23 -56 35 -52 27 -165 28 -235 3z m220 -88 c41 -27 73 -70 73 -98 0
-9 -4 -16 -9 -16 -5 0 -16 -3 -25 -6 -13 -5 -16 1 -16 27 0 64 -75 103 -126
64 -10 -8 -33 -15 -51 -15 -46 0 -84 -46 -53 -65 6 -3 10 -20 10 -36 0 -17 6
-32 15 -35 8 -4 15 -9 15 -13 0 -13 -80 -50 -95 -45 -15 6 -16 12 -19 74 0 17
-8 35 -16 40 -25 15 23 92 74 118 56 29 63 30 126 31 44 1 65 -5 97 -25z"/>
<path d="M1592 6478 c-19 -19 -15 -30 35 -104 52 -78 117 -210 139 -284 13
-45 18 -50 44 -50 42 0 49 36 21 109 -32 80 -104 231 -111 231 -4 0 -17 19
-30 43 -36 63 -70 83 -98 55z"/>
<path d="M1273 6249 c-25 -13 -36 -38 -27 -62 8 -22 32 -29 56 -16 11 6 34 8
52 5 55 -11 171 -77 239 -134 88 -74 262 -253 294 -302 21 -30 43 -61 50 -68
7 -7 13 -16 13 -20 0 -4 12 -20 26 -37 14 -16 33 -43 41 -60 9 -16 19 -32 22
-35 4 -3 25 -36 46 -75 21 -38 45 -76 52 -84 16 -16 223 -434 223 -450 0 -6
22 -55 49 -109 27 -53 55 -117 64 -142 8 -25 20 -56 25 -70 6 -14 13 -37 16
-52 5 -23 12 -28 35 -28 22 0 31 7 41 29 10 24 9 35 -8 67 -11 22 -23 50 -26
64 -4 14 -35 84 -68 155 -33 72 -73 157 -88 190 -56 123 -161 337 -171 348
-14 16 -73 112 -100 162 -25 47 -97 154 -116 173 -7 7 -13 17 -13 21 0 4 -8
16 -17 27 -10 10 -31 39 -47 63 -30 46 -204 228 -244 253 -12 8 -39 30 -60 49
-41 37 -60 48 -166 104 -75 40 -154 53 -193 34z"/>
<path d="M1112 6188 c-18 -24 -24 -59 -12 -73 15 -18 52 -19 68 -3 9 9 12 -5
12 -65 0 -55 -10 -113 -35 -209 -51 -195 -72 -267 -96 -323 -12 -27 -27 -64
-35 -82 -25 -60 -118 -158 -184 -193 -34 -18 -113 -40 -146 -40 -65 0 -101 91
-71 180 28 83 49 130 58 130 5 0 9 6 9 13 0 13 94 156 109 167 4 3 18 21 31
40 14 19 34 46 46 59 37 40 49 70 38 89 -26 41 -62 21 -124 -68 -13 -19 -35
-49 -49 -66 -49 -59 -57 -70 -64 -84 -4 -8 -21 -35 -37 -60 -99 -151 -132
-286 -91 -376 13 -29 16 -45 9 -52 -14 -14 -1 -62 16 -62 7 0 20 -7 27 -16 7
-9 36 -31 64 -49 27 -18 62 -44 77 -57 51 -45 68 -58 76 -58 4 0 18 -10 32
-23 14 -12 63 -48 110 -80 47 -31 98 -68 114 -82 16 -14 35 -25 42 -25 7 0 14
-4 16 -9 2 -5 41 -35 88 -67 47 -31 87 -61 88 -66 2 -4 10 -8 18 -8 8 0 14 -3
14 -7 0 -5 20 -21 45 -38 24 -16 45 -33 45 -37 0 -5 5 -8 11 -8 6 0 17 -6 24
-12 24 -22 39 -33 85 -65 25 -17 56 -41 70 -53 14 -12 37 -29 53 -38 31 -19
33 -37 13 -125 -59 -248 -61 -564 -6 -937 5 -36 14 -123 20 -195 15 -185 45
-393 72 -505 6 -25 14 -63 17 -85 4 -23 11 -47 15 -54 5 -7 12 -27 16 -45 5
-17 17 -55 28 -83 11 -29 20 -53 19 -53 -1 0 -81 -27 -177 -60 -96 -34 -269
-85 -385 -114 -115 -30 -246 -66 -290 -80 -90 -30 -214 -84 -233 -103 -6 -6
-21 -15 -32 -18 -11 -3 -20 -11 -20 -16 0 -5 -6 -9 -14 -9 -8 0 -16 -3 -18 -7
-1 -5 -25 -23 -53 -42 -27 -19 -63 -46 -80 -61 -20 -19 -46 -29 -79 -34 -60
-7 -78 -21 -74 -55 2 -18 10 -27 25 -29 19 -3 21 -6 11 -28 -10 -22 -13 -23
-29 -8 -21 19 -55 11 -64 -16 -6 -20 32 -120 46 -120 5 0 9 -5 9 -10 0 -6 31
-57 69 -113 88 -130 225 -276 316 -336 82 -55 235 -134 315 -162 30 -11 64
-24 75 -29 38 -17 143 -40 184 -40 48 0 127 34 142 62 17 31 2 58 -32 58 -16
0 -29 -4 -29 -9 0 -5 -13 -14 -30 -21 -38 -16 -126 -6 -200 21 -30 12 -64 24
-75 28 -51 20 -245 116 -245 122 0 4 -10 11 -22 15 -61 19 -251 211 -339 342
-38 57 -69 108 -69 112 0 5 9 12 20 15 17 6 23 15 22 35 0 3 12 23 27 45 24
34 32 40 60 37 41 -3 134 -50 186 -94 60 -50 135 -131 135 -145 0 -7 4 -13 9
-13 5 0 13 -9 16 -20 3 -11 12 -26 18 -33 18 -19 41 -71 92 -206 9 -25 17 -62
17 -83 1 -62 38 -87 73 -48 12 14 16 27 11 47 -4 15 -7 35 -7 43 -1 17 -35
121 -48 148 -5 9 -21 45 -37 80 -15 34 -31 62 -36 62 -4 0 -8 5 -8 11 0 11
-51 88 -85 127 -39 47 -161 140 -223 171 -51 26 -60 34 -50 44 16 16 183 129
217 147 53 28 235 84 436 135 116 29 237 62 270 74 33 12 123 42 200 67 234
77 289 109 254 150 -13 15 -45 15 -81 0 -13 -6 -19 -1 -24 21 -4 15 -13 37
-20 48 -8 11 -14 31 -14 45 0 14 -7 34 -15 44 -8 11 -15 30 -15 43 0 13 -6 49
-14 81 -14 55 -35 174 -55 317 -6 39 -15 129 -21 200 -6 72 -15 162 -20 200
-44 318 -55 628 -25 742 8 31 15 73 15 93 0 29 24 124 35 138 1 1 33 -12 70
-29 75 -36 98 -32 103 14 3 21 -2 29 -25 38 -15 6 -51 23 -80 36 -51 24 -52
25 -50 66 2 39 0 42 -26 45 -18 2 -29 -2 -33 -12 -6 -16 -44 -23 -44 -8 0 4
-21 21 -45 37 -25 17 -45 33 -45 38 0 4 -4 7 -10 7 -5 0 -18 7 -27 15 -53 43
-305 225 -312 225 -5 0 -11 3 -13 8 -1 4 -36 29 -76 56 -39 27 -81 58 -92 68
-10 10 -23 18 -29 18 -5 0 -11 3 -13 8 -5 10 -66 52 -77 52 -5 0 -11 4 -13 8
-2 5 -26 24 -54 44 -28 19 -81 59 -117 89 l-66 54 57 15 c62 17 182 77 182 91
0 5 6 9 13 9 6 1 23 15 37 31 14 17 34 41 44 52 29 33 106 202 133 292 69 230
93 348 93 452 l0 103 -32 20 c-37 22 -100 26 -116 8z"/>
<path d="M326 5044 c-20 -20 -20 -25 2 -65 41 -77 118 -154 192 -192 87 -45
202 -49 215 -8 12 38 -4 51 -64 51 -56 0 -127 25 -156 54 -8 8 -25 23 -38 33
-13 10 -43 46 -66 81 -45 65 -59 73 -85 46z"/>
<path d="M2434 1742 c-6 -4 -15 -14 -20 -23 -22 -40 -152 -165 -244 -235 -55
-42 -103 -81 -108 -88 -4 -7 -25 -25 -47 -41 -22 -16 -47 -36 -56 -45 -9 -8
-36 -31 -59 -49 -23 -19 -48 -41 -56 -48 -7 -7 -17 -13 -22 -13 -6 0 -12 -4
-14 -8 -4 -12 -155 -112 -168 -112 -5 0 -10 -4 -10 -8 0 -5 -28 -21 -62 -36
-35 -16 -75 -35 -90 -43 -15 -7 -29 -13 -30 -12 -7 4 -110 -31 -149 -51 -65
-34 -78 -62 -35 -81 20 -9 33 -8 68 9 24 11 54 23 68 27 14 3 34 10 45 15 11
5 45 18 75 28 72 27 113 47 183 94 32 21 62 38 67 38 5 0 10 3 12 8 2 4 26 23
53 41 60 42 179 140 183 152 2 5 8 9 13 9 10 0 22 9 123 95 39 33 87 72 107
87 61 46 188 168 209 203 24 39 26 81 4 89 -20 8 -26 7 -40 -2z"/>
</g>
</svg>
